<svg width="2em" height="2em" version="1.0" id="Capa_1" xmlns="http://www.w3.org/2000/svg" xmlns:xlink="http://www.w3.org/1999/xlink" x="0px" y="0px"
	 viewBox="0 0 336.45 120.77" style="enable-background:new 0 0 336.45 120.77;" xml:space="preserve">
<style type="text/css">
	.st0{fill:#A85918;}
</style>
<g>
	<path class="st0" d="M141.46,78.55c0.6,0.44,0.9,0.8,0.9,1.07c0,0.17-0.14,0.93-0.41,2.31c-0.33,1.86-0.66,3.9-0.99,6.09
		c-0.16,1.26-0.96,1.89-2.39,1.89H96.43c-1.32,0-2.2-0.08-2.63-0.25c-0.82-0.27-1.24-0.93-1.24-1.98c0-0.93,0.63-1.62,1.89-2.06
		c1.7-0.6,2.61-0.93,2.72-0.99c0.6-0.49,0.91-1.37,0.91-2.64V33.27c0-1.26-0.13-2.18-0.37-2.76c-0.25-0.57-1.15-1.08-2.72-1.52
		c-1.56-0.44-2.34-1.18-2.34-2.22c0-1.15,0.71-1.73,2.14-1.73l40.01-0.08c1.65,0,2.8,1.23,3.46,3.7c0.17,0.71,0.41,2.8,0.74,6.26
		c0.05,0.44-0.19,0.71-0.74,0.82c-0.55,0.17-1.04,0.14-1.48-0.08c-0.61-0.28-1.22-0.85-1.85-1.73c-0.63-0.88-1.19-1.48-1.69-1.81
		c-1.81-1.21-3.2-1.96-4.16-2.26c-0.96-0.3-2.54-0.45-4.73-0.45h-11.28c-1.86,0-2.99,0.03-3.37,0.08c-1.32,0.22-2.31,0.74-2.96,1.56
		c-0.44,0.55-0.66,1.29-0.66,2.22l0.08,19.51h19.43c0.77,0,1.7-0.45,2.8-1.36c1.1-0.9,1.86-1.36,2.31-1.36
		c1.15,0,1.73,0.55,1.73,1.65l0.08,6.26c0,1.48-0.63,2.22-1.89,2.22c-0.55,0-1.36-0.47-2.43-1.4c-1.07-0.93-1.99-1.4-2.76-1.4
		h-19.59l0.17,22.56c0,1.37,0.6,2.61,1.81,3.7c1.21,1.1,2.66,1.65,4.36,1.65h16.96c2.08,0,4.45-1.15,7.08-3.46
		c2.63-2.3,4.2-3.46,4.69-3.46C141.1,78.38,141.29,78.44,141.46,78.55"/>
	<path class="st0" d="M207.64,87.93c-0.06,1.26-0.88,1.89-2.47,1.89h-12.51c-1.04,0-1.67-0.05-1.89-0.16
		c-0.55-0.27-0.85-0.96-0.91-2.06c-0.06-0.72,0.55-1.29,1.81-1.73c1.48-0.49,2.37-1.07,2.68-1.73c0.3-0.66,0.31-1.37,0.04-2.14
		l-5.51-14.9h-28.98l-3.79,11.19c-0.6,1.7-0.69,3.29-0.25,4.78c0.22,0.77,1.15,1.62,2.8,2.55c1.48,0.77,2.17,1.65,2.06,2.64
		c-0.11,1.04-1.02,1.56-2.72,1.56h-10.7c-1.97,0-3.05-0.63-3.21-1.89c-0.11-0.77,0.28-1.45,1.15-2.06c1.26-0.82,2.02-1.41,2.26-1.77
		c0.25-0.36,0.73-1.33,1.44-2.92c1.92-5.6,3.84-11.22,5.76-16.87c4.28-11.63,10.21-24.26,17.78-37.87c1.04-1.86,1.89-2.8,2.55-2.8
		c0.93,0,2.06,1.02,3.37,3.05c5.32,8.39,10.78,19.7,16.38,33.91c2.52,6.92,5.08,13.8,7.66,20.66c0.27,0.66,0.79,1.7,1.56,3.13
		c0.27,0.44,1.02,0.99,2.22,1.65C207.17,86.59,207.64,87.22,207.64,87.93 M187.63,62.66l-6.59-13.91c-1.43-3.02-3.76-7.96-7-14.82
		c-2.91,6.37-7.16,15.95-12.76,28.73H187.63z"/>
	<path class="st0" d="M260.24,78.55c0.6,0.44,0.9,0.8,0.9,1.07c0,0.17-0.14,0.93-0.41,2.31c-0.33,1.86-0.66,3.9-0.99,6.09
		c-0.16,1.26-0.96,1.89-2.39,1.89h-42.14c-1.32,0-2.2-0.08-2.64-0.25c-0.82-0.27-1.23-0.93-1.23-1.98c0-0.93,0.63-1.62,1.89-2.06
		c1.7-0.6,2.61-0.93,2.72-0.99c0.6-0.49,0.91-1.37,0.91-2.64V33.27c0-1.26-0.12-2.18-0.37-2.76c-0.25-0.57-1.15-1.08-2.72-1.52
		c-1.56-0.44-2.34-1.18-2.34-2.22c0-1.15,0.71-1.73,2.14-1.73l40.01-0.08c1.65,0,2.8,1.23,3.46,3.7c0.17,0.71,0.41,2.8,0.74,6.26
		c0.05,0.44-0.19,0.71-0.74,0.82c-0.55,0.17-1.04,0.14-1.48-0.08c-0.61-0.28-1.22-0.85-1.85-1.73c-0.63-0.88-1.19-1.48-1.69-1.81
		c-1.81-1.21-3.2-1.96-4.16-2.26c-0.96-0.3-2.54-0.45-4.73-0.45h-11.28c-1.86,0-2.99,0.03-3.37,0.08c-1.32,0.22-2.31,0.74-2.96,1.56
		c-0.44,0.55-0.66,1.29-0.66,2.22l0.08,19.51h19.43c0.77,0,1.7-0.45,2.8-1.36c1.1-0.9,1.86-1.36,2.31-1.36
		c1.15,0,1.73,0.55,1.73,1.65l0.08,6.26c0,1.48-0.63,2.22-1.89,2.22c-0.55,0-1.36-0.47-2.43-1.4c-1.07-0.93-1.99-1.4-2.76-1.4
		h-19.59l0.16,22.56c0,1.37,0.6,2.61,1.81,3.7c1.21,1.1,2.66,1.65,4.36,1.65h16.96c2.08,0,4.45-1.15,7.08-3.46
		c2.63-2.3,4.2-3.46,4.69-3.46C259.88,78.38,260.07,78.44,260.24,78.55"/>
	<path class="st0" d="M334.07,26.94c-0.05,0.94-0.88,1.68-2.47,2.22c-0.55,0.16-1.13,0.3-1.73,0.41c-0.33,0.17-0.67,0.47-1.03,0.91
		c-0.36,0.44-0.54,1.59-0.54,3.45v46.59c0,2.03,0.17,3.26,0.49,3.71c0.33,0.44,1.18,0.88,2.55,1.32c1.15,0.39,1.81,0.63,1.98,0.74
		c0.38,0.28,0.6,0.77,0.66,1.48c0.05,1.37-0.52,2.06-1.73,2.06h-14.74c-0.44,0-0.91-0.23-1.4-0.7c-0.49-0.47-0.71-0.84-0.66-1.11
		c0.11-0.55,0.19-0.93,0.25-1.15c0.27-0.49,0.74-0.9,1.4-1.23c0.71-0.11,1.67-0.58,2.88-1.4c0.33-0.44,0.49-1.65,0.49-3.62V33.27
		c-2.03,5.05-5.43,13.17-10.21,24.37c-5.82,13.23-9.11,20.22-9.88,20.99c-0.6,1.87-1.46,2.83-2.55,2.88
		c-0.99,0.06-1.97-0.88-2.96-2.8c-0.17-0.16-1.68-3.38-4.53-9.63c-2.96-6.69-5.46-12.51-7.49-17.45l-7.74-18.94l0.08,47.85
		c0,2.14,0.27,3.39,0.82,3.78c0.82,0.6,1.86,1.09,3.13,1.48c0.88,0.27,1.37,0.44,1.48,0.49c0.49,0.33,0.74,0.9,0.74,1.72
		c0.06,1.15-0.58,1.72-1.89,1.72l-12.27,0.08c-1.54,0-2.3-0.52-2.3-1.56c0-1.26,0.55-2.08,1.65-2.46c0.55-0.22,1.12-0.41,1.73-0.57
		c0.33-0.17,0.69-0.51,1.07-1.03c0.38-0.52,0.58-1.66,0.58-3.41V33.91c0-2.24-0.17-3.59-0.49-4.02c-0.33-0.44-0.84-0.71-1.52-0.82
		c-0.69-0.11-1.36-0.22-2.02-0.33c-1.26-0.33-1.89-0.96-1.89-1.89c0-1.26,0.79-1.89,2.39-1.89h11.94c0.49,0,1.02,0.22,1.57,0.66
		c0.55,0.44,0.99,1.1,1.32,1.97l17.45,42.4l9.96-21.4c2.31-4.94,5.27-12.05,8.89-21.32c0-0.66,0.33-1.23,0.99-1.73
		c0.49-0.38,0.93-0.58,1.32-0.58h12.43C333.53,24.96,334.13,25.62,334.07,26.94"/>
	<path class="st0" d="M46.24,37.63c-0.3-0.8,0.17-1.73,1.09-2.01c0.91-0.28,1.83,0.22,2.03,1.06c0.2,0.83-0.31,1.66-1.12,1.91
		C47.43,38.85,46.55,38.44,46.24,37.63"/>
	<path class="st0" d="M41.13,40.11c-0.46-0.73-0.17-1.73,0.67-2.18c0.84-0.45,1.84-0.14,2.19,0.64c0.35,0.78,0.02,1.7-0.72,2.1
		C42.53,41.07,41.58,40.84,41.13,40.11"/>
	<path class="st0" d="M32.37,38.57c0.36-0.78,1.35-1.09,2.19-0.64c0.84,0.46,1.13,1.45,0.67,2.18c-0.46,0.73-1.41,0.96-2.15,0.56
		C32.34,40.27,32.01,39.35,32.37,38.57"/>
	<path class="st0" d="M27,36.69c0.2-0.84,1.11-1.35,2.03-1.06c0.91,0.28,1.39,1.2,1.09,2.01c-0.31,0.8-1.19,1.22-2,0.97
		C27.31,38.35,26.8,37.52,27,36.69"/>
	<path class="st0" d="M38.25,73.54c-1.67,0-3.2-0.44-4.28-1.21c-0.59,0.33-1.25,0.51-1.93,0.51c-2.17,0-3.93-1.78-3.93-3.97
		c0-2.19,1.76-3.98,3.93-3.98c0.41,0,0.75,0.33,0.75,0.75c0,0.41-0.33,0.74-0.75,0.74c-1.35,0-2.44,1.11-2.44,2.49
		c0,1.37,1.1,2.48,2.44,2.48c0.55,0,1.07-0.18,1.51-0.53c0.29-0.23,0.7-0.22,0.97,0.03l0.1,0.09l0.02,0.02
		c0.8,0.68,2.15,1.09,3.62,1.09c1.47,0,2.83-0.41,3.63-1.1l0.11-0.1c0.27-0.24,0.68-0.25,0.96-0.03c0.44,0.35,0.96,0.53,1.51,0.53
		c1.35,0,2.44-1.11,2.44-2.48c0-1.37-1.1-2.49-2.44-2.49c-0.41,0-0.75-0.33-0.75-0.74c0-0.41,0.33-0.75,0.75-0.75
		c2.17,0,3.93,1.78,3.93,3.98c0,2.19-1.77,3.97-3.93,3.97c-0.68,0-1.35-0.18-1.93-0.51C41.45,73.09,39.89,73.54,38.25,73.54"/>
	<path class="st0" d="M46.83,60.65c-0.03,0-0.07,0-0.1-0.01c-0.38-0.05-0.66-0.38-0.64-0.76c0.03-0.81,0.18-1.61,0.46-2.36
		c0.2-0.6,0.5-1.18,0.88-1.74c0.02-0.03,0.04-0.05,0.06-0.07c1.03-1.42,2.45-2.29,4.02-2.48c0.37-0.05,0.76-0.04,1.15-0.02
		c0.26,0.02,0.5,0.06,0.74,0.11c2.08,0.41,4.08,1.86,5.63,4.09c0.12,0.17,0.16,0.39,0.12,0.59c-0.05,0.2-0.18,0.38-0.36,0.48
		c-0.63,0.36-1.32,0.66-2.07,0.88c-2.45,0.79-5.71,0.73-8.15-0.17c-0.03-0.01-0.12-0.04-0.15-0.05c-0.14,0-0.22,0.02-0.28,0.06
		c-0.26,0.14-0.47,0.47-0.57,0.88C47.47,60.42,47.17,60.65,46.83,60.65 M48.89,57.73c0.04,0,0.15,0.05,0.22,0.08
		c2.06,0.75,4.98,0.82,7.16,0.12c0.35-0.11,0.69-0.23,1-0.36c-1.23-1.52-2.69-2.5-4.18-2.79c-0.19-0.04-0.37-0.07-0.56-0.09
		c-0.28-0.02-0.57-0.03-0.85,0.01c-1.18,0.14-2.25,0.82-3.01,1.9c-0.01,0.02-0.03,0.03-0.04,0.05c-0.22,0.32-0.4,0.66-0.55,1
		C48.37,57.62,48.65,57.65,48.89,57.73"/>
	<path class="st0" d="M29.67,60.65c-0.34,0-0.64-0.23-0.72-0.57c-0.1-0.41-0.31-0.74-0.56-0.88c-0.07-0.04-0.14-0.06-0.22-0.06
		c-0.03,0.01-0.13,0.03-0.17,0.03c-2.54,0.94-5.73,0.98-8.22,0.19c-0.73-0.21-1.42-0.51-2.05-0.87c-0.18-0.1-0.31-0.28-0.36-0.48
		c-0.04-0.2,0-0.42,0.12-0.59c1.55-2.23,3.55-3.69,5.64-4.1c0.22-0.05,0.47-0.09,0.72-0.11c0.41-0.03,0.78-0.04,1.16,0.01
		c1.58,0.19,3.01,1.08,4.02,2.49c0.02,0.02,0.03,0.04,0.05,0.06c0.38,0.55,0.68,1.15,0.89,1.76c0.27,0.74,0.42,1.53,0.45,2.34
		c0.01,0.38-0.26,0.71-0.64,0.77C29.74,60.64,29.7,60.65,29.67,60.65 M19.23,57.57c0.31,0.14,0.64,0.26,0.98,0.36
		c2.21,0.71,5.08,0.65,7.21-0.13c0.04-0.01,0.14-0.06,0.28-0.09c0.09-0.04,0.42-0.08,0.71-0.04c-0.14-0.35-0.33-0.69-0.55-1.01
		c-0.02-0.03-0.04-0.05-0.06-0.08c-0.74-1.05-1.81-1.72-2.99-1.87c-0.29-0.03-0.57-0.03-0.86-0.01c-0.18,0.01-0.36,0.05-0.54,0.09
		C21.92,55.07,20.46,56.05,19.23,57.57"/>
	<path class="st0" d="M33.5,53.42c-0.34,0-0.65-0.23-0.73-0.58c-0.76-3.32-3.54-6.05-7.09-6.95c-3.78-0.97-7.78,0.31-9.96,3.17
		c-0.25,0.33-0.72,0.39-1.04,0.14c-0.33-0.25-0.39-0.72-0.14-1.05c2.58-3.39,7.1-4.85,11.51-3.72c4.09,1.04,7.29,4.21,8.18,8.07
		c0.09,0.4-0.16,0.8-0.56,0.89C33.61,53.42,33.56,53.42,33.5,53.42"/>
	<path class="st0" d="M43,53.42c-0.05,0-0.11-0.01-0.17-0.02c-0.4-0.09-0.65-0.49-0.56-0.89c0.88-3.86,4.09-7.02,8.17-8.07
		c4.41-1.13,8.94,0.33,11.51,3.72c0.25,0.33,0.19,0.8-0.14,1.05c-0.33,0.25-0.8,0.19-1.05-0.14c-2.18-2.86-6.17-4.14-9.95-3.17
		c-3.55,0.91-6.33,3.64-7.09,6.95C43.65,53.19,43.34,53.42,43,53.42"/>
	<path class="st0" d="M48.8,98.59c-0.19-0.29-0.4-0.57-0.63-0.85c-0.06-0.07-0.12-0.16-0.19-0.23c-0.16-0.19-0.32-0.38-0.5-0.57
		c-0.18-0.2-0.37-0.4-0.57-0.6c-2.08-2.02-4.75-3.37-7.61-3.65v-2.2c5.79-0.45,10.35-4.84,10.38-10.13c0-0.26-0.15-0.51-0.38-0.64
		c-2.9-1.69-6.82-2.61-11.04-2.61c-4.22,0-8.14,0.92-11.04,2.61c-0.23,0.13-0.38,0.38-0.38,0.64c0.01,5.29,4.57,9.66,10.36,10.13
		v3.21c0,0.57,0.47,1.06,1.06,1.06c2.46,0,4.79,0.98,6.67,2.61c0.24,0.19,0.44,0.38,0.66,0.6c0.18,0.18,0.37,0.37,0.54,0.57
		c0.07,0.07,0.13,0.16,0.2,0.25c0.23,0.28,0.45,0.56,0.65,0.85c1.44,2.04,2.3,4.53,2.3,7.16c0,6.08-4.96,11.03-11.03,11.03
		c-3.37,0-6.1-2.73-6.1-6.1c0-3.36,2.73-6.1,6.1-6.1c1.39,0,2.52,1.13,2.52,2.52c0,1.4-1.13,2.52-2.52,2.52
		c-0.59,0-1.06,0.48-1.06,1.06c0,0.59,0.47,1.05,1.06,1.05c2.55,0,4.62-2.08,4.62-4.63c0-2.55-2.07-4.62-4.62-4.62
		c-4.53,0-8.21,3.68-8.21,8.2c0,4.53,3.68,8.21,8.21,8.21c7.24,0,13.12-5.89,13.12-13.14C51.38,103.79,50.41,100.93,48.8,98.59
		 M38.26,78.59c3.4,0,6.67,0.66,9.21,1.85c-2.18,1.27-5.59,2.04-9.21,2.04c-3.62,0-7.02-0.76-9.21-2.04
		C31.58,79.25,34.85,78.59,38.26,78.59 M28.49,81.83c2.43,1.35,5.94,2.13,9.77,2.13s7.33-0.78,9.77-2.13
		c-0.82,4.11-4.88,7.21-9.77,7.21C33.37,89.04,29.3,85.93,28.49,81.83"/>
	<path class="st0" d="M73.36,47.45c-0.65-1.22-1.57-1.7-2.23-1.91c-0.26-0.09-0.59-0.13-0.94-0.13c-0.16,0-0.32,0.01-0.5,0.03
		c0.44-1.66,0.72-3.14,0.88-4.09l0.03-0.15c0-0.03,0.02-0.09,0.02-0.1c0.34-1.91,0.51-3.83,0.51-5.72v-0.35
		c2.63-4-0.38-13.05-5.22-19.6c-4.21-5.7-9-9.37-12.71-9.78c-2.59-2.95-8.23-4.8-14.87-4.8c-6.66,0-12.27,1.85-14.85,4.8
		c-3.72,0.41-8.52,4.09-12.73,9.79c-4.82,6.55-7.8,15.57-5.19,19.59l0.03,1.75v0.09c0.07,1.47,0.23,2.86,0.45,4.15
		c0.02,0.12,0.05,0.25,0.07,0.41c0.07,0.45,0.34,2.05,0.86,4.05c-0.23-0.04-0.44-0.06-0.65-0.06c-0.35,0-0.67,0.04-0.97,0.15
		c-0.65,0.19-1.55,0.67-2.2,1.88c-2.01,3.75,0.34,11.99,0.84,13.61c1.3,4.3,4.65,7.99,6.7,9.77c0.34,1.11,0.76,2.2,1.26,3.23
		c0,0,0.15,0.32,0.37,0.76c0.57,1.16,1.53,3.17,1.77,3.77c0.29,0.78,0.91,2.67,0.97,2.92c0.01,0.04,0.03,0.1,0.06,0.15
		c0.31,1.3,0.89,2.57,1.72,3.68L24,95.01c3.11,4.12,8.45,6.57,14.32,6.57c2.89,0,5.75-0.62,8.24-1.75c0.15-0.06,0.28-0.13,0.41-0.2
		c-0.19-0.29-0.41-0.57-0.65-0.85c-0.07-0.09-0.13-0.18-0.2-0.25c-0.18-0.2-0.37-0.4-0.54-0.57c-0.22-0.22-0.43-0.41-0.66-0.6
		c-2.01,0.88-4.28,1.35-6.67,1.35c-4.97,0-9.47-2.02-12.02-5.38l-7.14-9.76c-0.63-0.82-1.05-1.74-1.29-2.74l-0.1-0.37
		c-0.19-0.6-0.69-2.2-1.01-2.99c-0.31-0.75-1.39-3-1.86-3.96c-0.2-0.42-0.34-0.7-0.35-0.72c-0.87-1.82-1.45-3.75-1.75-5.63
		l-0.01-0.22c-0.15-0.94-0.22-1.92-0.22-2.92c0-0.22,0-0.43,0.02-0.66l0.03-0.05l-0.01-0.34l-0.01-0.09
		c-0.32-5.51-0.91-12.52-1.79-14.87c-0.19-0.51-0.37-1.04-0.53-1.55c1.33-3.59,3.33-6.83,5.81-9.58c0.32,0.45,0.88,0.7,1.47,0.65
		c0.84-0.06,1.49-0.8,1.47-1.67c-0.01-0.5-0.29-0.92-0.72-1.17c5.37-4.84,12.43-7.68,19.97-7.68s14.6,2.85,19.97,7.67
		c-0.43,0.25-0.72,0.69-0.73,1.19c-0.01,0.87,0.65,1.61,1.48,1.67c0.59,0.06,1.13-0.19,1.47-0.65c2.52,2.79,4.54,6.1,5.88,9.77
		c-0.15,0.45-0.29,0.91-0.47,1.36c-0.18,0.47-0.34,1.13-0.5,1.92l-0.04,0.12c-0.48,2.57-0.92,6.88-1.28,12.86l-0.01,0.43l0.01,0.01
		c0.02,0.22,0.02,0.44,0.02,0.67c0,1-0.07,1.98-0.22,3.04c-0.12,0.73-0.28,1.49-0.48,2.24l-0.25,0.95c-0.28,0.87-0.6,1.7-1,2.52
		c0,0.01-0.15,0.29-0.35,0.73c-0.71,1.44-1.6,3.28-1.86,3.94c-0.31,0.79-0.82,2.39-1.01,2.99l-0.12,0.4
		c-0.22,0.98-0.65,1.9-1.28,2.73l-7.13,9.73c-0.9,1.19-2.05,2.21-3.37,3.02c0.2,0.2,0.39,0.39,0.57,0.6
		c0.18,0.19,0.34,0.38,0.5,0.57c0.07,0.07,0.13,0.16,0.19,0.24c0.23,0.28,0.44,0.56,0.63,0.85c1.54-1,2.84-2.2,3.86-3.55l7.18-9.75
		c0.81-1.1,1.41-2.36,1.72-3.67c0.01-0.04,0.03-0.1,0.04-0.15c0.09-0.29,0.66-2.16,0.98-2.9c0.22-0.56,1.04-2.3,1.75-3.77
		c0.25-0.47,0.41-0.81,0.41-0.81c0.56-1.2,0.97-2.32,1.28-3.39c2.04-1.79,5.24-5.41,6.51-9.59C73,59.44,75.38,51.24,73.36,47.45
		 M13.02,17.17c4.43-6.01,9.06-8.87,11.35-8.62l0.51,0.06l0.28-0.45c1.51-2.54,7.01-4.38,13.08-4.38c6.08,0,11.58,1.85,13.11,4.38
		l0.26,0.45l0.53-0.06c2.26-0.26,6.91,2.61,11.33,8.62c4.27,5.76,6.25,12.49,5.5,15.42c-4.15-8.18-11.38-14.26-19.87-17.08
		l0.78-1.29c0.05-0.06,0.07-0.1,0.09-0.16c0.19-0.31,0.29-0.65,0.29-1.03c0-2.8-6.04-4.27-12.01-4.27c-5.98,0-12.02,1.47-12.02,4.27
		c0,0.26,0.06,0.59,0.25,0.95c0,0.01,0.02,0.04,0.03,0.06c0.01,0.01,0.01,0.04,0.03,0.06l0.85,1.41C18.9,18.33,11.7,24.4,7.55,32.58
		C6.79,29.65,8.77,22.93,13.02,17.17 M46.96,14.47c-0.19,0.07-0.4,0.16-0.63,0.23c-0.7,0.23-1.57,0.47-2.64,0.66
		c-0.5,0.09-1.01,0.16-1.55,0.22h-0.01c0,0.01-0.01,0.01-0.03,0c-2.45,0.29-5.24,0.29-7.68,0c-0.01,0.01-0.03,0.01-0.04,0h-0.01
		c-0.54-0.06-1.06-0.13-1.55-0.22c-1-0.18-1.89-0.4-2.64-0.66c-0.21-0.07-0.41-0.15-0.6-0.23c-0.47-0.18-0.86-0.38-1.17-0.6
		c-0.07-0.05-0.13-0.09-0.19-0.15c-0.31-0.25-0.47-0.5-0.47-0.69c0-0.01,0-0.04,0.01-0.06c0.13-0.98,3.72-2.71,10.51-2.71
		c6.77,0,10.38,1.73,10.51,2.71c0.01,0.01,0.01,0.04,0.01,0.06c0,0.18-0.15,0.42-0.47,0.69C48.02,13.96,47.58,14.22,46.96,14.47
		 M47.04,16.06l-0.26,0.44l-2.46,4.1c-0.54,0.76-2.86,1.57-6.05,1.57c-3.21,0-5.51-0.8-6.04-1.52l-2.49-4.14l-0.28-0.47
		c0.3,0.1,0.62,0.2,0.94,0.29c0.66,0.19,1.38,0.35,2.16,0.5c1.73,0.31,3.71,0.48,5.72,0.48c1.99,0,3.97-0.18,5.7-0.48
		c0.65-0.12,1.41-0.28,2.18-0.5C46.44,16.25,46.75,16.16,47.04,16.06 M10.9,62.75l-0.06,0.07l-0.04,0.03l0.12,0.31
		c-0.01,0.28-0.01,0.57-0.01,0.87c0,1.07,0.07,2.13,0.24,3.25c0,0.03,0.01,0.06,0.01,0.09c-1.72-1.79-3.67-4.43-4.5-7.17
		c-0.88-2.87-1.42-5.82-1.51-8.08c-0.09-2.59,0.47-3.69,1-3.86c0.04-0.01,0.07-0.01,0.13-0.01c0.56,0,2.27,0.53,3.43,2.23
		C10.15,52.96,10.56,57.2,10.9,62.75 M38.18,25.38c-12.42,0-23.65,7.35-28.71,18.52c-0.35-1.49-0.56-2.68-0.62-3.05l-0.04-0.26
		c-0.15-0.81-0.26-1.61-0.34-2.43c-0.01-0.29-0.03-0.6-0.04-0.91c-0.03-0.57-0.04-1.19-0.04-1.83L8.37,34.6
		c3.88-8.55,11.2-14.88,19.87-17.67l2.74,4.55c0.95,1.32,3.81,2.18,7.27,2.18c3.44,0,6.3-0.86,7.3-2.26l2.7-4.47
		c8.67,2.77,15.97,9.09,19.85,17.62v0.38l-0.02,0.47c0,1.6-0.17,3.3-0.51,5.22l-0.05,0.25c-0.04,0.31-0.25,1.51-0.63,3.06
		C61.86,32.74,50.62,25.38,38.18,25.38 M71.22,52.12c-0.07,2.26-0.63,5.2-1.49,8.08c-0.84,2.68-2.71,5.26-4.4,7.04
		c0.01-0.01,0.01-0.04,0.01-0.06c0.15-1.03,0.24-2.08,0.24-3.17c0-0.31-0.01-0.62-0.03-0.89l0.09-0.28l-0.07-0.07
		c0.35-5.7,0.78-9.98,1.24-12.45c1.25-1.73,3.06-2.16,3.42-2.05C70.76,48.43,71.3,49.53,71.22,52.12"/>
</g>
</svg>
